<svg xmlns="http://www.w3.org/2000/svg" width="160.068" height="25" viewBox="0 0 160.068 25">
  <g id="Group_87" data-name="Group 87" transform="translate(-1696 -57)">
    <text id="Favorites" transform="translate(1696 76)" fill="#e0e0e0" font-size="25" font-family="Helvetica" letter-spacing="0.03em"><tspan x="0" y="0">Favorites</tspan></text>
    <g id="favorite_white_48dp" transform="translate(1836 58.466)">
      <path id="Path_4" data-name="Path 4" d="M0,0H20.068V20.068H0Z" fill="none"/>
      <path id="Path_5" data-name="Path 5" d="M10.362,18.344l-1.212-1.1C4.843,13.335,2,10.76,2,7.6A4.554,4.554,0,0,1,6.6,3a5.007,5.007,0,0,1,3.763,1.748A5.007,5.007,0,0,1,14.125,3a4.554,4.554,0,0,1,4.6,4.6c0,3.161-2.843,5.736-7.149,9.65Z" transform="translate(-0.328 -0.491)" fill="#fff"/>
    </g>
  </g>
</svg>
